<?xml version="1.0" encoding="UTF-8"?>
<svg width="70px" height="70px" viewBox="0 0 70 70" version="1.1" xmlns="http://www.w3.org/2000/svg" xmlns:xlink="http://www.w3.org/1999/xlink">
    <!-- Generator: Sketch 41.2 (35397) - http://www.bohemiancoding.com/sketch -->
    <title>Page 1 Copy</title>
    <desc>Created with Sketch.</desc>
    <defs></defs>
    <g id="Page-1" stroke="none" stroke-width="1" fill="none" fill-rule="evenodd" stroke-linejoin="round">
        <g id="Mockup-2" transform="translate(-844.000000, -67.000000)" stroke="#00AF8A">
            <g id="Page-1-Copy" transform="translate(846.000000, 69.000000)">
                <path d="M32.9318182,0.205394191 C50.9945455,0.205394191 65.6590909,14.9307884 65.6590909,33.0684647 C65.6590909,51.2060863 50.9945455,65.9315353 32.9318182,65.9315353 C14.8691455,65.9315353 0.204545455,51.2060863 0.204545455,33.0684647 C0.204545455,14.9307884 14.8691455,0.205394191 32.9318182,0.205394191 Z" id="Stroke-1" stroke-width="3.5" stroke-linecap="round"></path>
                <path d="M27.4772727,65.3759851 C19.1356364,48.3100282 21.7402636,35.9521992 27.4772727,30.3298755 C27.5255455,29.8969046 28.1798182,30.3879336 31.1836364,30.3298755 C31.1836364,30.3298755 27.8367273,33.2089544 27.4450909,38.6165726 C27.0278182,44.3731419 29.9593636,52.9948232 43.8409091,64.0585867" id="Stroke-2" stroke-width="2" stroke-linecap="round"></path>
                <path d="M30.5416364,30.9885062 C32.0612727,29.5151452 35.0509091,25.6783817 38.0359091,22.5257178 C38.3509091,22.1932531 46.4896364,12.3767801 46.857,12.9023154 C49.8392727,15.6967718 53.1125455,19.9544564 55.3000909,21.9536266 C55.5578182,22.1894191 57.801,19.1465726 58.0565455,19.363195 C67.4839091,27.3598755 65.6364545,30.3323402 65.697,30.4561245" id="Stroke-3" stroke-width="2"></path>
                <path d="M0.531572727,28.9285394 C2.45329091,27.3234523 4.18336364,25.8911701 5.78042727,24.5804813 C6.00379091,24.3972697 7.24287273,26.5730788 7.40994545,26.3452282 C10.0337182,22.7697261 14.0554636,18.0881079 14.4609,17.5992697 C21.2110091,23.8470871 23.5887545,26.863917 27.6640909,30.2767469" id="Stroke-4" stroke-width="2"></path>
            </g>
        </g>
    </g>
</svg>