<?xml version="1.0" encoding="UTF-8" standalone="no"?><!DOCTYPE svg PUBLIC "-//W3C//DTD SVG 1.1//EN" "http://www.w3.org/Graphics/SVG/1.1/DTD/svg11.dtd"><svg width="100%" height="100%" viewBox="0 0 351 138" version="1.1" xmlns="http://www.w3.org/2000/svg" xmlns:xlink="http://www.w3.org/1999/xlink" xml:space="preserve" style="fill-rule:evenodd;clip-rule:evenodd;stroke-linecap:round;stroke-linejoin:round;stroke-miterlimit:1.5;"><rect id="Albion-Wires-Logo" x="0" y="0" width="350.766" height="137.318" style="fill:none;"/><path id="D-Dev" d="M151.51,100.322c0,-1.21 0.035,-1.866 0.104,-2.592l-1.002,0c0.069,0.726 0.104,1.382 0.104,2.592l0,7.808c0,1.312 0.069,2.798 0.172,3.282l-0.103,0c-1.002,-3.593 -3.628,-5.77 -7.29,-5.77c-4.768,0 -7.981,3.731 -7.981,9.294c0,5.7 3.144,9.397 7.981,9.397c3.697,0 6.322,-2.108 7.324,-5.735l0.069,0c-0.103,0.76 -0.172,1.727 -0.172,2.591l0,2.833l0.898,-0.035c-0.069,-0.725 -0.104,-1.416 -0.104,-2.591l0,-21.074Zm-8.015,23.285c-4.422,0 -7.186,-3.385 -7.186,-8.671c0,-5.252 2.764,-8.568 7.186,-8.568c4.388,0 7.221,3.351 7.221,8.568c0,5.355 -2.764,8.671 -7.221,8.671Z" style="fill:#dcdcdc;fill-rule:nonzero;"/><path id="E-Dev" d="M170.823,114.728l0,-0.621c0,-5.459 -2.729,-8.534 -7.566,-8.534c-5.079,0 -8.188,3.524 -8.188,9.328c0,5.597 3.455,9.432 8.464,9.432c2.108,0 4.077,-0.656 5.528,-1.831c0.449,-0.346 1.002,-0.864 1.313,-1.244l-0.553,-0.518c-0.38,0.518 -0.829,0.967 -1.382,1.382c-1.313,0.967 -3.075,1.485 -4.906,1.485c-4.629,0 -7.67,-3.454 -7.67,-8.706l0,-0.173l14.96,0Zm-14.925,-0.691c0.276,-4.836 3.006,-7.738 7.324,-7.738c4.388,0 6.806,2.763 6.806,7.738l-14.13,0Z" style="fill:#dcdcdc;fill-rule:nonzero;"/><path id="V-Dev" d="M185.23,106.022c-0.173,0.622 -0.38,1.244 -0.933,2.591l-4.871,12.231c-0.415,1.036 -0.588,1.52 -0.795,2.142c-0.207,-0.622 -0.484,-1.348 -0.795,-2.142l-4.871,-12.231c-0.553,-1.347 -0.76,-1.969 -0.933,-2.591l-1.036,0c0.345,0.657 0.622,1.313 1.14,2.591l5.078,12.783c0.45,1.14 0.691,1.866 0.864,2.591l1.106,0c0.172,-0.725 0.414,-1.451 0.863,-2.591l5.079,-12.783c0.587,-1.451 0.829,-2.004 1.14,-2.591l-1.036,0Z" style="fill:#dcdcdc;fill-rule:nonzero;"/><path id="D-Design" d="M226.971,100.322c0,-1.21 0.035,-1.866 0.104,-2.592l-1.002,0c0.069,0.726 0.104,1.382 0.104,2.592l0,7.808c0,1.312 0.069,2.798 0.172,3.282l-0.103,0c-1.002,-3.593 -3.628,-5.77 -7.29,-5.77c-4.768,0 -7.981,3.731 -7.981,9.294c0,5.7 3.144,9.397 7.981,9.397c3.697,0 6.322,-2.108 7.324,-5.735l0.069,0c-0.103,0.76 -0.172,1.727 -0.172,2.591l0,2.833l0.898,-0.035c-0.069,-0.725 -0.104,-1.416 -0.104,-2.591l0,-21.074Zm-8.015,23.285c-4.422,0 -7.186,-3.385 -7.186,-8.671c0,-5.252 2.764,-8.568 7.186,-8.568c4.388,0 7.221,3.351 7.221,8.568c0,5.355 -2.764,8.671 -7.221,8.671Z" style="fill:#dcdcdc;fill-rule:nonzero;"/><path id="E-Design" d="M246.284,114.728l0,-0.621c0,-5.459 -2.729,-8.534 -7.566,-8.534c-5.079,0 -8.188,3.524 -8.188,9.328c0,5.597 3.455,9.432 8.464,9.432c2.108,0 4.077,-0.656 5.528,-1.831c0.449,-0.346 1.002,-0.864 1.313,-1.244l-0.553,-0.518c-0.38,0.518 -0.829,0.967 -1.382,1.382c-1.313,0.967 -3.075,1.485 -4.906,1.485c-4.629,0 -7.67,-3.454 -7.67,-8.706l0,-0.173l14.96,0Zm-14.925,-0.691c0.276,-4.836 3.006,-7.738 7.324,-7.738c4.388,0 6.806,2.763 6.806,7.738l-14.13,0Z" style="fill:#dcdcdc;fill-rule:nonzero;"/><path id="S-Design" d="M248.011,120.844c0.519,0.794 1.21,1.52 1.97,2.072c1.278,0.968 2.867,1.417 4.906,1.417c4.042,0 6.46,-1.866 6.46,-4.975c0,-2.729 -1.658,-4.042 -6.46,-5.01c-3.662,-0.725 -5.079,-1.762 -5.079,-3.8c0,-2.591 1.9,-4.146 5.079,-4.146c1.174,0 2.314,0.242 3.316,0.726c0.795,0.414 1.451,0.933 1.866,1.451l0.553,-0.588c-0.553,-0.621 -1.417,-1.243 -2.28,-1.623c-1.037,-0.449 -2.177,-0.691 -3.455,-0.691c-3.524,0 -5.874,1.934 -5.874,4.871c0,2.453 1.624,3.766 5.735,4.595c4.457,0.898 5.805,1.9 5.805,4.284c0,2.729 -2.004,4.18 -5.632,4.18c-1.865,0 -3.42,-0.414 -4.526,-1.312c-0.691,-0.553 -1.313,-1.244 -1.796,-2.004l-0.588,0.553Z" style="fill:#dcdcdc;fill-rule:nonzero;"/><path id="I-Design" d="M265.32,99.078c-0.483,0 -0.863,0.345 -0.863,0.829c0,0.518 0.38,0.864 0.863,0.864c0.484,0 0.83,-0.346 0.83,-0.864c0,-0.484 -0.346,-0.829 -0.83,-0.829Zm-0.518,6.944c0.069,0.726 0.104,1.382 0.104,2.591l0,12.783c0,1.175 -0.035,1.866 -0.104,2.591l1.002,0c-0.069,-0.725 -0.104,-1.416 -0.104,-2.591l0,-12.783c0,-1.209 0.035,-1.865 0.104,-2.591l-1.002,0Z" style="fill:#dcdcdc;fill-rule:nonzero;"/><path id="G-Design" d="M284.771,106.022l0,2.833c0,0.795 0.035,1.762 0.104,2.557c-1.037,-3.593 -3.662,-5.77 -7.324,-5.77c-4.768,0 -7.981,3.731 -7.981,9.294c0,5.7 3.144,9.397 7.981,9.397c3.765,0 6.391,-2.211 7.358,-5.942c-0.069,0.691 -0.138,1.9 -0.138,2.763l0,3.732c0,4.18 -2.625,6.668 -7.048,6.668c-2.073,0 -3.593,-0.449 -4.733,-1.348c-0.76,-0.622 -1.347,-1.451 -1.865,-2.487l-0.657,0.449c0.622,1.14 1.313,2.004 2.142,2.66c1.313,1.002 2.937,1.451 5.113,1.451c4.803,0 7.843,-2.833 7.843,-7.393l0,-16.273c0,-1.209 0.034,-1.865 0.104,-2.591l-0.899,0Zm-7.22,17.585c-4.423,0 -7.187,-3.385 -7.187,-8.671c0,-5.252 2.764,-8.568 7.187,-8.568c4.387,0 7.22,3.351 7.22,8.568c0,5.355 -2.764,8.671 -7.22,8.671Z" style="fill:#dcdcdc;fill-rule:nonzero;"/><path id="N-Design" d="M304.637,123.987c-0.069,-0.76 -0.104,-1.451 -0.104,-2.591l0,-9.086c0,-4.215 -2.349,-6.633 -6.391,-6.633c-3.282,0 -5.805,1.727 -6.772,4.387l-0.104,0c0.104,-0.794 0.139,-1.796 0.139,-2.591l0,-1.451l-0.899,0c0.069,0.726 0.104,1.382 0.104,2.591l0,12.783c0,1.175 -0.035,1.866 -0.104,2.591l1.002,0c-0.069,-0.725 -0.103,-1.416 -0.103,-2.591l0,-8.81c0,-3.627 2.694,-6.149 6.668,-6.184c3.696,0 5.666,2.142 5.666,6.115l0,8.879c0,1.14 -0.035,1.831 -0.104,2.591l1.002,0Z" style="fill:#dcdcdc;fill-rule:nonzero;"/><path id="W-Web" d="M54.837,123.987l-6.051,-18.282l1.631,0l5.236,16.008l4.249,-16.008l1.931,0l4.249,15.664l5.193,-15.664l1.673,0l-6.051,18.282l-1.631,0l-4.42,-15.836l-4.378,15.836l-1.631,0Z" style="fill:#dcdcdc;fill-rule:nonzero;"/><path id="E-Web" d="M81.607,124.631c-2.46,0 -4.435,-0.887 -5.923,-2.661c-1.487,-1.802 -2.231,-4.177 -2.231,-7.124c0,-2.947 0.744,-5.322 2.231,-7.124c1.488,-1.774 3.463,-2.661 5.923,-2.661c2.461,0 4.435,0.815 5.923,2.446c1.488,1.631 2.231,3.805 2.231,6.524l0,0.815l-14.592,0c0,2.489 0.587,4.478 1.76,5.966c1.173,1.487 2.733,2.231 4.678,2.231c1.459,0 2.775,-0.386 3.949,-1.158c1.201,-0.802 2.031,-1.846 2.489,-3.133l1.716,0c-0.286,1.688 -1.201,3.09 -2.746,4.205c-1.545,1.116 -3.348,1.674 -5.408,1.674Zm-6.438,-11.416l12.876,0l0,-0.644c-0.143,-1.688 -0.83,-3.118 -2.06,-4.291c-1.259,-1.145 -2.718,-1.717 -4.378,-1.717c-1.659,0 -3.104,0.586 -4.335,1.76c-1.258,1.201 -1.959,2.675 -2.103,4.42l0,0.472Z" style="fill:#dcdcdc;fill-rule:nonzero;"/><path id="B-Web" d="M100.18,124.631c-1.345,0 -2.604,-0.386 -3.777,-1.159c-1.144,-0.743 -2.017,-1.759 -2.618,-3.047l0,3.562l-1.717,0l0,-25.45l1.717,0l0,11.288c0.486,-1.316 1.316,-2.389 2.489,-3.219c1.173,-0.801 2.475,-1.202 3.906,-1.202c2.403,0 4.32,0.873 5.751,2.618c1.459,1.745 2.189,4.077 2.189,6.996c0,2.918 -0.73,5.25 -2.189,6.995c-1.431,1.746 -3.348,2.618 -5.751,2.618Zm0,-1.459c1.917,0 3.462,-0.744 4.635,-2.232c1.144,-1.487 1.717,-3.462 1.717,-5.922c0,-2.461 -0.573,-4.435 -1.717,-5.923c-1.173,-1.488 -2.718,-2.232 -4.635,-2.232c-1.774,0 -3.276,0.801 -4.507,2.404c-1.259,1.573 -1.888,3.49 -1.888,5.751c0,2.26 0.629,4.177 1.888,5.751c1.231,1.602 2.733,2.403 4.507,2.403Z" style="fill:#dcdcdc;fill-rule:nonzero;"/><path id="Asterisk" d="M198.357,103.53l0,-2.175c0.001,-0.031 0.001,-0.038 0.005,-0.069c0.005,-0.034 0.014,-0.067 0.026,-0.099c0.037,-0.097 0.106,-0.18 0.194,-0.233c0.04,-0.024 0.082,-0.042 0.126,-0.054c0.034,-0.009 0.068,-0.014 0.102,-0.015c0.012,0 0.023,0 0.035,0c0.011,0.001 0.022,0.002 0.034,0.003c0.03,0.004 0.038,0.004 0.067,0.012c0.034,0.009 0.066,0.021 0.096,0.037c0.113,0.058 0.199,0.161 0.236,0.282c0.01,0.033 0.016,0.067 0.018,0.102c0.001,0.011 0.001,0.022 0.002,0.034l0,2.175l1.641,-1.558c0.008,-0.007 0.015,-0.014 0.023,-0.02c0.015,-0.013 0.031,-0.025 0.048,-0.036c0.051,-0.032 0.108,-0.055 0.168,-0.066c0.019,-0.003 0.039,-0.006 0.06,-0.007c0.01,0 0.02,0 0.03,-0.001c0.01,0.001 0.02,0.001 0.03,0.002c0.026,0.003 0.033,0.003 0.059,0.008c0.06,0.012 0.116,0.036 0.166,0.069c0.042,0.028 0.08,0.063 0.111,0.102c0.074,0.096 0.109,0.219 0.097,0.339c-0.005,0.04 -0.014,0.08 -0.028,0.117c-0.018,0.047 -0.044,0.091 -0.075,0.13c-0.017,0.021 -0.022,0.026 -0.041,0.045l-1.581,1.5l2.266,0l0.035,0.002c0.012,0.001 0.023,0.002 0.035,0.004c0.023,0.003 0.046,0.008 0.068,0.015c0.079,0.025 0.151,0.07 0.207,0.13c0.031,0.034 0.058,0.073 0.078,0.116c0.031,0.063 0.047,0.133 0.047,0.204c0,0.07 -0.016,0.14 -0.047,0.204c-0.02,0.042 -0.047,0.081 -0.078,0.115c-0.04,0.043 -0.088,0.079 -0.141,0.104c-0.042,0.021 -0.088,0.035 -0.134,0.042c-0.031,0.004 -0.039,0.004 -0.07,0.005l-2.266,0l1.581,1.501c0.019,0.019 0.024,0.023 0.041,0.044c0.031,0.039 0.057,0.083 0.075,0.13c0.021,0.056 0.031,0.117 0.03,0.177c-0.001,0.05 -0.01,0.1 -0.027,0.148c-0.017,0.047 -0.042,0.092 -0.072,0.131c-0.025,0.032 -0.054,0.06 -0.086,0.085c-0.096,0.073 -0.22,0.107 -0.34,0.093c-0.07,-0.009 -0.138,-0.033 -0.198,-0.071c-0.017,-0.01 -0.033,-0.022 -0.048,-0.035c-0.008,-0.007 -0.015,-0.014 -0.023,-0.02l-1.641,-1.559l0,2.175c-0.002,0.031 -0.001,0.039 -0.005,0.069c-0.007,0.045 -0.02,0.089 -0.04,0.131c-0.024,0.052 -0.058,0.099 -0.099,0.139c-0.033,0.032 -0.071,0.059 -0.112,0.08c-0.092,0.047 -0.198,0.063 -0.3,0.044c-0.045,-0.009 -0.089,-0.024 -0.13,-0.044c-0.04,-0.021 -0.078,-0.048 -0.111,-0.08c-0.066,-0.064 -0.113,-0.147 -0.133,-0.236c-0.005,-0.023 -0.008,-0.045 -0.01,-0.068c0,-0.012 0,-0.023 -0.001,-0.035l0,-2.175l-1.642,1.559c-0.02,0.018 -0.024,0.022 -0.046,0.038c-0.04,0.03 -0.086,0.053 -0.134,0.068c-0.057,0.019 -0.118,0.026 -0.178,0.022c-0.121,-0.009 -0.236,-0.066 -0.316,-0.157c-0.027,-0.03 -0.05,-0.063 -0.068,-0.099c-0.023,-0.045 -0.039,-0.093 -0.046,-0.143c-0.008,-0.05 -0.007,-0.1 0.001,-0.15c0.012,-0.069 0.04,-0.136 0.081,-0.193c0.011,-0.017 0.024,-0.032 0.038,-0.047c0.007,-0.007 0.014,-0.014 0.021,-0.021l1.581,-1.501l-2.266,0c-0.031,-0.001 -0.039,-0.001 -0.07,-0.005c-0.047,-0.007 -0.092,-0.021 -0.134,-0.042c-0.053,-0.025 -0.101,-0.061 -0.141,-0.104c-0.072,-0.077 -0.116,-0.179 -0.124,-0.284c-0.004,-0.047 0,-0.094 0.01,-0.14c0.011,-0.046 0.028,-0.09 0.052,-0.13c0.023,-0.041 0.053,-0.078 0.087,-0.11c0.06,-0.056 0.135,-0.095 0.215,-0.114c0.023,-0.005 0.046,-0.008 0.07,-0.01c0.011,-0.001 0.023,-0.001 0.035,-0.002l2.266,0l-1.581,-1.5c-0.019,-0.019 -0.024,-0.024 -0.041,-0.045c-0.038,-0.046 -0.067,-0.1 -0.085,-0.158c-0.038,-0.126 -0.022,-0.265 0.045,-0.378c0.021,-0.035 0.046,-0.067 0.074,-0.095c0.036,-0.035 0.077,-0.065 0.123,-0.087c0.045,-0.022 0.093,-0.037 0.143,-0.044c0.027,-0.004 0.033,-0.003 0.06,-0.005c0.01,0.001 0.02,0.001 0.03,0.001c0.027,0.002 0.034,0.002 0.06,0.007c0.059,0.011 0.116,0.034 0.167,0.066c0.017,0.011 0.034,0.023 0.049,0.036c0.008,0.006 0.015,0.013 0.022,0.02l1.642,1.558Z" style="fill:#00af8a;"/><path id="A-Letter" d="M16.599,54.368l26.338,0l6.014,15.757c0.533,1.446 1.75,2.131 3.121,2.131c0.456,0 0.913,-0.076 1.37,-0.228c1.522,-0.381 2.74,-1.522 2.74,-3.045c0,-0.457 -0.076,-0.837 -0.304,-1.294l-20.705,-52.143c-0.99,-2.588 -2.969,-3.578 -5.405,-3.578c-2.36,0 -4.263,0.99 -5.252,3.578l-20.705,51.991c-0.153,0.457 -0.229,0.837 -0.229,1.294c0,1.446 1.142,2.74 2.665,3.121c0.532,0.152 0.989,0.228 1.522,0.228c1.294,0 2.436,-0.609 2.969,-2.131l5.861,-15.681Zm2.284,-6.394l8.601,-22.076c0.914,-2.283 1.675,-4.719 2.36,-7.307c0.685,2.588 1.523,5.024 2.36,7.231l8.449,22.152l-21.77,0Z" style="fill:#dcdcdc;fill-rule:nonzero;"/><path id="L-Letter" d="M65.621,63.579c0,5.785 2.36,8.145 7.765,8.145l29.23,0c1.979,0 3.121,-1.675 3.121,-3.502c0,-1.903 -1.142,-3.349 -3.121,-3.349l-26.947,0c-1.75,0 -2.74,-0.914 -2.74,-2.665l0,-47.043c0,-2.207 -1.522,-3.197 -3.654,-3.197c-2.055,0 -3.654,0.99 -3.654,3.273l0,48.338Z" style="fill:#dcdcdc;fill-rule:nonzero;"/><path id="B-Letter" d="M158.077,71.724c11.723,0 18.498,-6.09 18.498,-16.443c0,-8.221 -3.959,-13.245 -11.723,-14.843c6.546,-2.132 9.667,-6.395 9.667,-13.626c0,-9.135 -6.318,-14.387 -17.279,-14.387l-17.965,0c-5.405,0 -7.688,2.36 -7.688,8.221l0,42.933c0,5.785 2.283,8.145 7.688,8.145l18.802,0Zm-19.411,-34.255l0,-16.29c0,-1.523 0.761,-2.436 2.208,-2.436l15.833,0c6.927,0 10.505,3.045 10.505,8.982c0,6.09 -3.806,9.744 -10.353,9.744l-18.193,0Zm0,6.242l18.421,0c7.765,0 11.952,3.73 11.952,10.885c0,7.003 -4.111,10.81 -11.799,10.81l-16.138,0c-1.675,0 -2.436,-0.838 -2.436,-2.512l0,-19.183Z" style="fill:#dcdcdc;fill-rule:nonzero;"/><path id="I-Letter" d="M186.851,69.059c0,2.056 1.522,3.121 3.578,3.121c2.131,0 3.73,-1.065 3.73,-3.121l0,-53.97c0,-2.131 -1.599,-3.121 -3.73,-3.121c-2.056,0 -3.578,0.99 -3.578,3.121l0,53.97Z" style="fill:#dcdcdc;fill-rule:nonzero;"/><path id="O-Letter" d="M263.483,11.283c-16.366,0 -26.643,12.103 -26.643,30.753c0,18.878 10.353,30.906 26.643,30.906c16.29,0 26.49,-12.104 26.49,-30.83c0,-18.802 -10.2,-30.829 -26.49,-30.829Zm0,6.547c11.57,0 18.954,9.439 18.954,23.826c0,15.3 -7.079,24.663 -18.954,24.663c-11.647,0 -19.107,-9.515 -19.107,-24.207c0,-14.691 7.308,-24.282 19.107,-24.282Z" style="fill:#dcdcdc;fill-rule:nonzero;"/><path id="N-Letter" d="M339.376,38.154c0,10.962 0.761,21.999 1.218,26.719c-1.979,-4.263 -6.242,-12.408 -9.744,-18.117l-19.182,-31.134c-1.447,-2.284 -2.741,-3.654 -6.166,-3.654c-2.969,0 -4.796,1.751 -4.796,4.568l0,52.523c0,2.056 1.523,3.121 3.654,3.121c2.055,0 3.578,-1.065 3.578,-3.121l0,-23.369c0,-11.19 -0.609,-21.771 -1.066,-26.642c1.751,3.806 5.557,11.266 8.602,16.137l20.172,32.656c1.903,3.045 3.121,4.339 6.394,4.339c3.045,0 4.568,-1.827 4.568,-4.795l0,-52.296c0,-2.131 -1.447,-3.121 -3.578,-3.121c-2.132,0 -3.654,0.99 -3.654,3.121l0,23.065Z" style="fill:#dcdcdc;fill-rule:nonzero;"/><path id="Left-Bracket" d="M108.353,42.055l-6.736,3.976c-0.251,0.154 -0.348,0.367 -0.348,0.598c0,0.135 0.039,0.29 0.097,0.425c0.135,0.27 0.366,0.482 0.675,0.482c0.116,0 0.232,-0.038 0.348,-0.115l7.102,-4.285c0.464,-0.27 0.714,-0.541 0.714,-1.062c0,-0.54 -0.25,-0.81 -0.733,-1.119l-7.083,-4.227c-0.116,-0.077 -0.251,-0.116 -0.367,-0.116c-0.29,0 -0.541,0.232 -0.656,0.483c-0.058,0.135 -0.097,0.289 -0.097,0.424c0,0.232 0.097,0.444 0.348,0.599l6.736,3.937Z" style="fill:#00af8a;fill-rule:nonzero;"/><path id="Right-Bracket" d="M218.918,42.093l-6.736,3.976c-0.251,0.154 -0.348,0.367 -0.348,0.598c0,0.135 0.039,0.29 0.097,0.425c0.135,0.27 0.366,0.483 0.675,0.483c0.116,0 0.232,-0.039 0.348,-0.116l7.102,-4.285c0.464,-0.27 0.715,-0.541 0.715,-1.062c0,-0.54 -0.251,-0.81 -0.734,-1.119l-7.083,-4.227c-0.116,-0.077 -0.251,-0.116 -0.367,-0.116c-0.29,0 -0.541,0.232 -0.656,0.483c-0.058,0.135 -0.097,0.289 -0.097,0.424c0,0.232 0.097,0.444 0.348,0.599l6.736,3.937Z" style="fill:#00af8a;fill-rule:nonzero;"/><path id="A-plug" d="M16.086,62.444l-2.493,-0.985l-2.617,6.618l2.492,0.986l2.618,-6.619Z" style="fill:#dcdcdc;"/><path id="N-plug" d="M332.411,61.813l-2.322,1.34l3.559,6.164l2.321,-1.341l-3.558,-6.163Z" style="fill:#dcdcdc;"/><path id="O-plug" d="M280.512,69.317l-1.34,-2.322l-6.164,3.559l1.34,2.321l6.164,-3.558Z" style="fill:#dcdcdc;"/><rect id="I-plug" x="193.313" y="14.991" width="2.68" height="7.117" style="fill:#dcdcdc;"/><path id="B-plug" d="M173.234,68.698l-1.34,-2.321l-6.164,3.558l1.34,2.321l6.164,-3.558Z" style="fill:#dcdcdc;"/><path id="AL-wire" d="M13.468,65.261c14.227,0 20.6,10.788 38.422,10.788c17.822,0 42.573,-24.597 42.573,-13.469" style="fill:none;stroke:#dcdcdc;stroke-width:0.35px;"/><path id="L-plug" d="M90.905,62.58l0,2.681l7.117,0l0,-2.681l-7.117,0Z" style="fill:#dcdcdc;"/><path id="BI-wire" d="M169.482,69.935c7.802,7.802 26.886,-3.305 25.171,-6.364c-1.714,-3.059 -14.852,-11.31 -3.162,-12.189c3.189,-2.666 6.393,-2.909 -1.49,-9.308c-7.884,-6.399 -2.189,-7.446 4.158,-10.603c6.346,-3.158 13.087,-13.46 0.494,-12.922" style="fill:none;stroke:#dcdcdc;stroke-width:0.35px;"/><path id="On-wire" d="M276.76,70.554c2.098,4.129 16.081,8.527 39.59,0c23.509,-8.528 19.619,-7.401 19.619,-7.401" style="fill:none;stroke:#dcdcdc;stroke-width:0.35px;"/></svg>