<?xml version="1.0" encoding="utf-8"?>
<!-- Generator: Adobe Illustrator 20.0.0, SVG Export Plug-In . SVG Version: 6.00 Build 0)  -->
<svg version="1.1" id="Layer_1" xmlns="http://www.w3.org/2000/svg" xmlns:xlink="http://www.w3.org/1999/xlink" x="0px" y="0px"
	 viewBox="0 0 351 138" style="enable-background:new 0 0 351 138;" xml:space="preserve">
<style type="text/css">
	.st0{fill:none;}
	.st1{fill:#FCFDF7;}
	.st2{fill:#00AF8A;}
	.st3{fill:none;stroke:#FFFFFF;stroke-width:0.35;stroke-linecap:round;stroke-linejoin:round;stroke-miterlimit:1.5;}
</style>
<path class="st0" d="M0,0h350.8v137.3H0V0z"/>
<path class="st1" d="M108.5,93.7c0-1.2,0-1.9,0.1-2.6h-1c0.1,0.7,0.1,1.4,0.1,2.6v7.8c0,1.3,0.1,2.8,0.2,3.3h-0.1
	c-1-3.6-3.6-5.8-7.3-5.8c-4.8,0-8,3.7-8,9.3c0,5.7,3.1,9.4,8,9.4c3.7,0,6.3-2.1,7.3-5.7h0.1c-0.1,0.9-0.2,1.7-0.2,2.6v2.8l0.9,0
	c-0.1-0.7-0.1-1.4-0.1-2.6L108.5,93.7L108.5,93.7z M100.5,117c-4.4,0-7.2-3.4-7.2-8.7c0-5.3,2.8-8.6,7.2-8.6c4.4,0,7.2,3.4,7.2,8.6
	C107.7,113.6,104.9,117,100.5,117z M127.8,108.1v-0.6c0-5.5-2.7-8.5-7.6-8.5c-5.1,0-8.2,3.5-8.2,9.3c0,5.6,3.5,9.4,8.5,9.4
	c2.1,0,4.1-0.7,5.5-1.8c0.4-0.3,1-0.9,1.3-1.2l-0.6-0.5c-0.4,0.5-0.8,1-1.4,1.4c-1.3,1-3.1,1.5-4.9,1.5c-4.6,0-7.7-3.5-7.7-8.7v-0.2
	H127.8L127.8,108.1z M112.9,107.4c0.3-4.8,3-7.7,7.3-7.7c4.4,0,6.8,2.8,6.8,7.7H112.9z M142.2,99.4c-0.2,0.6-0.4,1.2-0.9,2.6
	l-4.9,12.2c-0.3,0.7-0.6,1.4-0.8,2.1c-0.2-0.7-0.5-1.4-0.8-2.1l-4.9-12.2c-0.6-1.3-0.8-2-0.9-2.6h-1c0.3,0.7,0.6,1.3,1.1,2.6
	l5.1,12.8c0.4,1.1,0.7,1.9,0.9,2.6h1.1c0.2-0.7,0.4-1.5,0.9-2.6l5.1-12.8c0.6-1.5,0.8-2,1.1-2.6H142.2L142.2,99.4z M183.9,93.7
	c0-1.2,0-1.9,0.1-2.6h-1c0.1,0.7,0.1,1.4,0.1,2.6v7.8c0,1.3,0.1,2.8,0.2,3.3h-0.1c-1-3.6-3.6-5.8-7.3-5.8c-4.8,0-8,3.7-8,9.3
	c0,5.7,3.1,9.4,8,9.4c3.7,0,6.3-2.1,7.3-5.7h0.1c-0.1,0.9-0.2,1.7-0.2,2.6v2.8l0.9,0c-0.1-0.7-0.1-1.4-0.1-2.6L183.9,93.7
	L183.9,93.7z M175.9,117c-4.4,0-7.2-3.4-7.2-8.7c0-5.3,2.8-8.6,7.2-8.6c4.4,0,7.2,3.4,7.2,8.6C183.1,113.6,180.4,117,175.9,117z
	 M203.2,108.1v-0.6c0-5.5-2.7-8.5-7.6-8.5c-5.1,0-8.2,3.5-8.2,9.3c0,5.6,3.5,9.4,8.5,9.4c2.1,0,4.1-0.7,5.5-1.8
	c0.4-0.3,1-0.9,1.3-1.2l-0.6-0.5c-0.4,0.5-0.8,1-1.4,1.4c-1.3,1-3.1,1.5-4.9,1.5c-4.6,0-7.7-3.5-7.7-8.7v-0.2H203.2L203.2,108.1z
	 M188.3,107.4c0.3-4.8,3-7.7,7.3-7.7c4.4,0,6.8,2.8,6.8,7.7H188.3z M205,114.2c0.5,0.8,1.2,1.5,2,2.1c1.3,1,2.9,1.4,4.9,1.4
	c4,0,6.5-1.9,6.5-5c0-2.7-1.7-4-6.5-5c-3.7-0.7-5.1-1.8-5.1-3.8c0-2.6,1.9-4.1,5.1-4.1c1.2,0,2.3,0.2,3.3,0.7
	c0.8,0.4,1.5,0.9,1.9,1.5l0.6-0.6c-0.6-0.6-1.4-1.2-2.3-1.6c-1-0.4-2.2-0.7-3.5-0.7c-3.5,0-5.9,1.9-5.9,4.9c0,2.5,1.6,3.8,5.7,4.6
	c4.5,0.9,5.8,1.9,5.8,4.3c0,2.7-2,4.2-5.6,4.2c-1.9,0-3.4-0.4-4.5-1.3c-0.7-0.6-1.3-1.2-1.8-2C205.6,113.6,205,114.2,205,114.2z
	 M222.3,92.4c-0.5,0-0.9,0.3-0.9,0.8c0,0.5,0.4,0.9,0.9,0.9c0.5,0,0.8-0.3,0.8-0.9C223.1,92.8,222.8,92.4,222.3,92.4z M221.8,99.4
	c0.1,0.7,0.1,1.4,0.1,2.6v12.8c0,1.2,0,1.9-0.1,2.6h1c-0.1-0.7-0.1-1.4-0.1-2.6V102c0-1.2,0-1.9,0.1-2.6H221.8z M241.7,99.4v2.8
	c0,0.8,0,1.8,0.1,2.6c-1-3.6-3.7-5.8-7.3-5.8c-4.8,0-8,3.7-8,9.3c0,5.7,3.1,9.4,8,9.4c3.8,0,6.4-2.2,7.4-5.9
	c-0.1,0.7-0.1,1.9-0.1,2.8v3.7c0,4.2-2.6,6.7-7,6.7c-2.1,0-3.6-0.4-4.7-1.3c-0.8-0.6-1.3-1.5-1.9-2.5l-0.7,0.4
	c0.6,1.1,1.3,2,2.1,2.7c1.3,1,2.9,1.5,5.1,1.5c4.8,0,7.8-2.8,7.8-7.4V102c0-1.2,0-1.9,0.1-2.6L241.7,99.4L241.7,99.4z M234.5,117
	c-4.4,0-7.2-3.4-7.2-8.7c0-5.3,2.8-8.6,7.2-8.6c4.4,0,7.2,3.4,7.2,8.6C241.7,113.6,239,117,234.5,117z M261.6,117.3
	c-0.1-0.9-0.1-1.7-0.1-2.6v-9.1c0-4.2-2.3-6.6-6.4-6.6c-3.3,0-5.8,1.7-6.8,4.4h-0.1c0.1-0.8,0.1-1.8,0.1-2.6v-1.5h-0.9
	c0.1,0.7,0.1,1.4,0.1,2.6v12.8c0,1.2,0,1.9-0.1,2.6h1c-0.1-0.7-0.1-1.4-0.1-2.6v-8.8c0-3.6,2.7-6.1,6.7-6.2c3.7,0,5.7,2.1,5.7,6.1
	v8.9c0,1.1,0,1.8-0.1,2.6H261.6L261.6,117.3z M11.8,117.3L5.8,99.1h1.6l5.2,16l4.2-16h1.9l4.2,15.7l5.2-15.7h1.7l-6.1,18.3h-1.6
	l-4.4-15.8l-4.4,15.8H11.8z M38.6,118c-2.5,0-4.4-0.9-5.9-2.7c-1.5-1.8-2.2-4.2-2.2-7.1s0.7-5.3,2.2-7.1c1.5-1.8,3.5-2.7,5.9-2.7
	c2.5,0,4.4,0.8,5.9,2.4s2.2,3.8,2.2,6.5v0.8H32.1c0,2.5,0.6,4.5,1.8,6c1.2,1.5,2.7,2.2,4.7,2.2c1.5,0,2.8-0.4,3.9-1.2
	c1.2-0.8,2-1.8,2.5-3.1h1.7c-0.3,1.7-1.2,3.1-2.7,4.2C42.4,117.4,40.6,118,38.6,118z M32.1,106.6H45v-0.6c-0.1-1.7-0.8-3.1-2.1-4.3
	c-1.3-1.1-2.7-1.7-4.4-1.7c-1.7,0-3.1,0.6-4.3,1.8c-1.3,1.2-2,2.7-2.1,4.4C32.1,106.1,32.1,106.6,32.1,106.6z M57.1,118
	c-1.3,0-2.6-0.4-3.8-1.2c-1.1-0.7-2-1.8-2.6-3v3.6H49V91.9h1.7v11.3c0.5-1.3,1.3-2.4,2.5-3.2c1.1-0.8,2.5-1.2,3.9-1.2
	c2.4,0,4.3,0.9,5.8,2.6c1.5,1.7,2.2,4.1,2.2,7c0,2.9-0.7,5.2-2.2,7C61.5,117.1,59.5,118,57.1,118L57.1,118z M57.1,116.5
	c1.9,0,3.5-0.7,4.6-2.2c1.1-1.5,1.7-3.5,1.7-5.9c0-2.5-0.6-4.4-1.7-5.9c-1.2-1.5-2.7-2.2-4.6-2.2c-1.8,0-3.3,0.8-4.5,2.4
	c-1.3,1.6-1.9,3.5-1.9,5.8c0,2.3,0.6,4.2,1.9,5.8C53.9,115.7,55.4,116.5,57.1,116.5z"/>
<path class="st2" d="M155.3,96.9v-2.2c0,0,0,0,0-0.1c0-0.2,0.2-0.4,0.4-0.4h0l0,0c0,0,0,0,0.1,0c0.2,0.1,0.3,0.2,0.4,0.4l0,0v2.2
	l1.6-1.6l0,0c0.1-0.1,0.2-0.1,0.3-0.1l0,0l0,0c0,0,0,0,0.1,0c0.2,0,0.4,0.3,0.4,0.5c0,0.1,0,0.2-0.1,0.2c0,0,0,0,0,0l-1.6,1.5h2.3
	l0,0c0,0,0.1,0,0.1,0c0.1,0,0.2,0.1,0.3,0.2c0.1,0.1,0.1,0.3,0,0.4c-0.1,0.1-0.2,0.2-0.4,0.3c0,0,0,0-0.1,0H157l1.6,1.5c0,0,0,0,0,0
	c0.1,0.1,0.1,0.3,0.1,0.5c0,0.1-0.1,0.2-0.2,0.2c-0.2,0.1-0.4,0.1-0.6,0l0,0l-1.6-1.6v2.2c0,0,0,0,0,0.1c0,0.3-0.3,0.4-0.5,0.4
	c-0.1,0-0.2-0.1-0.3-0.1c-0.1-0.1-0.1-0.2-0.1-0.3l0,0v-2.2l-1.6,1.6c0,0,0,0,0,0c-0.2,0.2-0.5,0.1-0.7-0.1c0-0.1-0.1-0.1-0.1-0.2
	c0-0.1,0-0.3,0.1-0.4l0,0l1.6-1.5h-2.3c0,0,0,0-0.1,0c-0.2,0-0.4-0.2-0.4-0.4c0-0.3,0.2-0.5,0.4-0.5c0,0,0,0,0,0l0,0h2.3L153,96
	c-0.2-0.2-0.2-0.4-0.1-0.6c0.1-0.1,0.2-0.2,0.3-0.2c0,0,0,0,0.1,0c0,0,0,0,0,0c0,0,0,0,0.1,0c0.1,0,0.2,0.1,0.2,0.1l0,0L155.3,96.9
	L155.3,96.9z"/>
<path class="st1" d="M16.6,54.4h26.3l6,15.8c0.5,1.4,1.8,2.1,3.1,2.1c0.5,0,0.9-0.1,1.4-0.2c1.5-0.4,2.7-1.5,2.7-3
	c0-0.5-0.1-0.8-0.3-1.3L35.2,15.5c-1-2.6-3-3.6-5.4-3.6c-2.4,0-4.3,1-5.3,3.6l-20.7,52c-0.2,0.5-0.2,0.8-0.2,1.3
	c0,1.4,1.1,2.7,2.7,3.1c0.5,0.2,1,0.2,1.5,0.2c1.3,0,2.4-0.6,3-2.1C10.7,70,16.6,54.4,16.6,54.4z M18.9,48l8.6-22.1
	c0.9-2.3,1.7-4.7,2.4-7.3c0.7,2.6,1.5,5,2.4,7.2L40.7,48C40.7,48,18.9,48,18.9,48z M65.6,63.6c0,5.8,2.4,8.1,7.8,8.1h29.2
	c2,0,3.1-1.7,3.1-3.5c0-1.9-1.1-3.3-3.1-3.3H75.7c-1.8,0-2.7-0.9-2.7-2.7v-47c0-2.2-1.5-3.2-3.7-3.2c-2.1,0-3.7,1-3.7,3.3
	C65.6,15.2,65.6,63.6,65.6,63.6z M158.1,71.7c11.7,0,18.5-6.1,18.5-16.4c0-8.2-4-13.2-11.7-14.8c6.5-2.1,9.7-6.4,9.7-13.6
	c0-9.1-6.3-14.4-17.3-14.4h-18c-5.4,0-7.7,2.4-7.7,8.2v42.9c0,5.8,2.3,8.1,7.7,8.1H158.1z M138.7,37.5V21.2c0-1.5,0.8-2.4,2.2-2.4
	h15.8c6.9,0,10.5,3,10.5,9c0,6.1-3.8,9.7-10.4,9.7H138.7L138.7,37.5z M138.7,43.7h18.4c7.8,0,12,3.7,12,10.9c0,7-4.1,10.8-11.8,10.8
	h-16.1c-1.7,0-2.4-0.8-2.4-2.5V43.7z M186.9,69.1c0,2.1,1.5,3.1,3.6,3.1c2.1,0,3.7-1.1,3.7-3.1v-54c0-2.1-1.6-3.1-3.7-3.1
	c-2.1,0-3.6,1-3.6,3.1V69.1z M263.5,11.3c-16.4,0-26.6,12.1-26.6,30.8c0,18.9,10.4,30.9,26.6,30.9S290,60.8,290,42.1
	C290,23.3,279.8,11.3,263.5,11.3z M263.5,17.8c11.6,0,19,9.4,19,23.8c0,15.3-7.1,24.7-19,24.7c-11.6,0-19.1-9.5-19.1-24.2
	C244.4,27.4,251.7,17.8,263.5,17.8z M339.4,38.2c0,11,0.8,22,1.2,26.7c-2-4.3-6.2-12.4-9.7-18.1l-19.2-31.1
	c-1.4-2.3-2.7-3.7-6.2-3.7c-3,0-4.8,1.8-4.8,4.6v52.5c0,2.1,1.5,3.1,3.7,3.1c2.1,0,3.6-1.1,3.6-3.1V45.7c0-11.2-0.6-21.8-1.1-26.6
	c1.8,3.8,5.6,11.3,8.6,16.1l20.2,32.7c1.9,3,3.1,4.3,6.4,4.3c3,0,4.6-1.8,4.6-4.8V15.1c0-2.1-1.4-3.1-3.6-3.1c-2.1,0-3.7,1-3.7,3.1
	V38.2z"/>
<path class="st2" d="M108.4,42.1l-6.7,4c-0.2,0.1-0.4,0.3-0.3,0.6c0,0.1,0,0.3,0.1,0.4c0.1,0.3,0.4,0.5,0.7,0.5c0.1,0,0.2,0,0.3-0.1
	l7.1-4.3c0.5-0.3,0.7-0.5,0.7-1.1c0-0.5-0.2-0.8-0.7-1.1l-7.1-4.2c-0.1-0.1-0.2-0.1-0.4-0.1c-0.3,0-0.5,0.2-0.7,0.5
	c-0.1,0.1-0.1,0.3-0.1,0.4c0,0.2,0.1,0.4,0.3,0.6C101.6,38.1,108.4,42.1,108.4,42.1z M218.9,42.1l-6.7,4c-0.2,0.1-0.4,0.3-0.3,0.6
	c0,0.1,0,0.3,0.1,0.4c0.1,0.3,0.4,0.5,0.7,0.5c0.1,0,0.2,0,0.3-0.1l7.1-4.3c0.5-0.3,0.7-0.5,0.7-1.1c0-0.5-0.3-0.8-0.7-1.1l-7.1-4.2
	c-0.1-0.1-0.2-0.1-0.4-0.1c-0.3,0-0.5,0.2-0.7,0.5c-0.1,0.1-0.1,0.3-0.1,0.4c0,0.2,0.1,0.4,0.3,0.6L218.9,42.1z"/>
<path class="st1" d="M16.1,62.4l-2.5-1L11,68.1l2.5,1C13.5,69.1,16.1,62.4,16.1,62.4z M332.4,61.8l-2.3,1.3l3.6,6.2L336,68
	C336,68,332.4,61.8,332.4,61.8z M280.5,69.3l-1.3-2.3l-6.2,3.6l1.3,2.3L280.5,69.3z M193.3,15h2.7v7.1h-2.7V15z M173.2,68.7
	l-1.3-2.3l-6.2,3.6l1.3,2.3L173.2,68.7z"/>
<path class="st3" d="M13.5,65.3C27.7,65.3,34.1,76,51.9,76s42.6-24.6,42.6-13.5"/>
<path class="st1" d="M90.9,62.6v2.7H98v-2.7H90.9z"/>
<path class="st3" d="M169.5,69.9c7.8,7.8,26.9-3.3,25.2-6.4c-1.7-3.1-14.9-11.3-3.2-12.2c3.2-2.7,6.4-2.9-1.5-9.3
	c-7.9-6.4-2.2-7.4,4.2-10.6c6.3-3.2,13.1-13.5,0.5-12.9 M276.8,70.6c2.1,4.1,16.1,8.5,39.6,0c23.5-8.5,19.6-7.4,19.6-7.4"/>
</svg>
