<?xml version="1.0" encoding="UTF-8" standalone="no"?><!DOCTYPE svg PUBLIC "-//W3C//DTD SVG 1.1//EN" "http://www.w3.org/Graphics/SVG/1.1/DTD/svg11.dtd"><svg width="100%" height="100%" viewBox="0 0 524 186" version="1.1" xmlns="http://www.w3.org/2000/svg" xmlns:xlink="http://www.w3.org/1999/xlink" xml:space="preserve" style="fill-rule:evenodd;clip-rule:evenodd;stroke-linejoin:round;stroke-miterlimit:1.41421;"><g><g><text x="198.641px" y="172.741px" style="font-family:'HiraginoSans-W0', 'Hiragino Sans', sans-serif;font-weight:100;font-size:52.77px;fill:#fff;">d<tspan x="228.509px 255.211px " y="172.741px 172.741px ">ev</tspan></text><text x="198.641px" y="172.741px" style="font-family:'HiraginoSans-W0', 'Hiragino Sans', sans-serif;font-weight:100;font-size:52.77px;fill:#fff;">d<tspan x="228.509px 255.211px " y="172.741px 172.741px ">ev</tspan></text><text x="313.902px" y="172.741px" style="font-family:'HiraginoSans-W0', 'Hiragino Sans', sans-serif;font-weight:100;font-size:52.77px;fill:#fff;">d<tspan x="343.77px 371px 393.48px 403.401px 433.269px " y="172.741px 172.741px 172.741px 172.741px 172.741px ">esign</tspan></text><text x="68.155px" y="172.741px" style="font-family:'ShreeDev0714', 'Shree Devanagari 714';font-size:52.77px;fill:#fff;">w<tspan x="104.259px 130.988px " y="172.741px 172.741px ">eb</tspan></text><text x="68.155px" y="172.741px" style="font-family:'ShreeDev0714', 'Shree Devanagari 714';font-size:52.77px;fill:#fff;">w<tspan x="104.259px 130.988px " y="172.741px 172.741px ">eb</tspan></text><path d="M298.328,137.458c0.046,0.006 0.058,0.007 0.103,0.019c0.051,0.013 0.1,0.032 0.147,0.056c0.172,0.088 0.303,0.246 0.359,0.432c0.015,0.05 0.025,0.102 0.029,0.154c0.001,0.018 0.001,0.035 0.002,0.053l0,9.988c-0.002,0.047 -0.001,0.058 -0.008,0.105c-0.01,0.069 -0.031,0.137 -0.06,0.2c-0.037,0.079 -0.089,0.151 -0.152,0.212c-0.05,0.049 -0.108,0.09 -0.17,0.122c-0.141,0.072 -0.304,0.096 -0.459,0.067c-0.069,-0.012 -0.136,-0.035 -0.198,-0.067c-0.062,-0.032 -0.12,-0.073 -0.17,-0.122c-0.101,-0.097 -0.172,-0.224 -0.203,-0.361c-0.007,-0.034 -0.012,-0.069 -0.015,-0.104c-0.001,-0.017 -0.001,-0.034 -0.002,-0.052l0,-9.988c0.002,-0.047 0.001,-0.059 0.008,-0.105c0.007,-0.052 0.021,-0.103 0.04,-0.152c0.056,-0.148 0.161,-0.274 0.296,-0.356c0.06,-0.037 0.125,-0.065 0.193,-0.082c0.051,-0.014 0.103,-0.021 0.155,-0.023c0.018,-0.001 0.035,0 0.053,0c0.017,0.001 0.035,0.002 0.052,0.004Z" style="fill:#2bbe9d;fill-rule:nonzero;"/><path d="M303.564,142.45c0.018,0.002 0.036,0.003 0.054,0.006c0.035,0.005 0.07,0.013 0.104,0.024c0.12,0.037 0.23,0.105 0.315,0.197c0.049,0.053 0.09,0.113 0.121,0.177c0.046,0.097 0.071,0.204 0.071,0.312c0,0.107 -0.025,0.215 -0.071,0.311c-0.031,0.065 -0.072,0.125 -0.121,0.177c-0.061,0.066 -0.134,0.12 -0.215,0.159c-0.064,0.031 -0.134,0.052 -0.204,0.063c-0.048,0.007 -0.06,0.006 -0.107,0.008l-10.523,0c-0.047,-0.002 -0.06,-0.001 -0.107,-0.008c-0.071,-0.011 -0.14,-0.032 -0.204,-0.063c-0.081,-0.039 -0.154,-0.093 -0.215,-0.159c-0.11,-0.118 -0.178,-0.273 -0.19,-0.435c-0.005,-0.071 0,-0.143 0.016,-0.213c0.016,-0.07 0.042,-0.137 0.078,-0.199c0.036,-0.062 0.081,-0.119 0.134,-0.168c0.092,-0.085 0.206,-0.145 0.328,-0.173c0.035,-0.008 0.071,-0.014 0.107,-0.016c0.017,-0.002 0.035,-0.002 0.053,-0.002l10.523,0c0.017,0 0.035,0.001 0.053,0.002Z" style="fill:#2bbe9d;fill-rule:nonzero;"/><path d="M302.023,138.918c0.04,0.004 0.051,0.005 0.091,0.013c0.09,0.018 0.177,0.054 0.253,0.105c0.064,0.043 0.121,0.096 0.169,0.156c0.114,0.146 0.167,0.334 0.148,0.518c-0.007,0.062 -0.021,0.122 -0.043,0.179c-0.027,0.072 -0.066,0.139 -0.114,0.199c-0.026,0.032 -0.034,0.038 -0.063,0.067l-7.44,7.063c-0.031,0.027 -0.038,0.035 -0.071,0.059c-0.062,0.045 -0.131,0.081 -0.204,0.104c-0.088,0.028 -0.181,0.039 -0.273,0.033c-0.185,-0.014 -0.36,-0.101 -0.483,-0.239c-0.041,-0.046 -0.076,-0.097 -0.104,-0.152c-0.035,-0.068 -0.058,-0.142 -0.07,-0.218c-0.011,-0.076 -0.011,-0.154 0.002,-0.229c0.019,-0.106 0.061,-0.208 0.123,-0.295c0.018,-0.026 0.038,-0.049 0.058,-0.072c0.011,-0.011 0.022,-0.022 0.033,-0.033l7.44,-7.063c0.012,-0.01 0.023,-0.02 0.035,-0.03c0.023,-0.02 0.048,-0.038 0.074,-0.054c0.078,-0.05 0.165,-0.084 0.255,-0.101c0.031,-0.006 0.061,-0.009 0.092,-0.011c0.015,-0.001 0.03,0 0.046,-0.001c0.015,0.001 0.03,0.001 0.046,0.002Z" style="fill:#2bbe9d;fill-rule:nonzero;"/><path d="M294.568,138.917c0.041,0.004 0.051,0.004 0.091,0.011c0.091,0.017 0.178,0.051 0.256,0.101c0.026,0.016 0.051,0.034 0.074,0.054c0.012,0.01 0.023,0.02 0.035,0.03l7.44,7.063c0.029,0.029 0.037,0.036 0.063,0.068c0.048,0.059 0.087,0.127 0.114,0.199c0.033,0.086 0.049,0.178 0.047,0.27c-0.002,0.077 -0.016,0.153 -0.042,0.226c-0.026,0.072 -0.063,0.14 -0.11,0.2c-0.038,0.049 -0.082,0.092 -0.131,0.13c-0.147,0.112 -0.336,0.163 -0.52,0.141c-0.107,-0.012 -0.21,-0.049 -0.301,-0.107c-0.026,-0.016 -0.051,-0.035 -0.074,-0.054c-0.012,-0.01 -0.023,-0.021 -0.035,-0.031l-7.44,-7.063c-0.029,-0.029 -0.037,-0.035 -0.063,-0.067c-0.058,-0.072 -0.102,-0.154 -0.129,-0.242c-0.059,-0.192 -0.034,-0.405 0.068,-0.578c0.032,-0.053 0.07,-0.101 0.113,-0.145c0.055,-0.054 0.118,-0.099 0.187,-0.133c0.069,-0.034 0.143,-0.056 0.219,-0.067c0.041,-0.006 0.051,-0.005 0.092,-0.007c0.015,0.001 0.031,0.001 0.046,0.001Z" style="fill:#2bbe9d;fill-rule:nonzero;"/><path d="M298.328,137.458c0.046,0.006 0.058,0.007 0.103,0.019c0.051,0.013 0.1,0.032 0.147,0.056c0.172,0.088 0.303,0.246 0.359,0.432c0.015,0.05 0.025,0.102 0.029,0.154c0.001,0.018 0.001,0.035 0.002,0.053l0,9.988c-0.002,0.047 -0.001,0.058 -0.008,0.105c-0.01,0.069 -0.031,0.137 -0.06,0.2c-0.037,0.079 -0.089,0.151 -0.152,0.212c-0.05,0.049 -0.108,0.09 -0.17,0.122c-0.141,0.072 -0.304,0.096 -0.459,0.067c-0.069,-0.012 -0.136,-0.035 -0.198,-0.067c-0.062,-0.032 -0.12,-0.073 -0.17,-0.122c-0.101,-0.097 -0.172,-0.224 -0.203,-0.361c-0.007,-0.034 -0.012,-0.069 -0.015,-0.104c-0.001,-0.017 -0.001,-0.034 -0.002,-0.052l0,-9.988c0.002,-0.047 0.001,-0.059 0.008,-0.105c0.007,-0.052 0.021,-0.103 0.04,-0.152c0.056,-0.148 0.161,-0.274 0.296,-0.356c0.06,-0.037 0.125,-0.065 0.193,-0.082c0.051,-0.014 0.103,-0.021 0.155,-0.023c0.018,-0.001 0.035,0 0.053,0c0.017,0.001 0.035,0.002 0.052,0.004Z" style="fill:#2bbe9d;fill-rule:nonzero;"/><path d="M303.564,142.45c0.018,0.002 0.036,0.003 0.054,0.006c0.035,0.005 0.07,0.013 0.104,0.024c0.12,0.037 0.23,0.105 0.315,0.197c0.049,0.053 0.09,0.113 0.121,0.177c0.046,0.097 0.071,0.204 0.071,0.312c0,0.107 -0.025,0.215 -0.071,0.311c-0.031,0.065 -0.072,0.125 -0.121,0.177c-0.061,0.066 -0.134,0.12 -0.215,0.159c-0.064,0.031 -0.134,0.052 -0.204,0.063c-0.048,0.007 -0.06,0.006 -0.107,0.008l-10.523,0c-0.047,-0.002 -0.06,-0.001 -0.107,-0.008c-0.071,-0.011 -0.14,-0.032 -0.204,-0.063c-0.081,-0.039 -0.154,-0.093 -0.215,-0.159c-0.11,-0.118 -0.178,-0.273 -0.19,-0.435c-0.005,-0.071 0,-0.143 0.016,-0.213c0.016,-0.07 0.042,-0.137 0.078,-0.199c0.036,-0.062 0.081,-0.119 0.134,-0.168c0.092,-0.085 0.206,-0.145 0.328,-0.173c0.035,-0.008 0.071,-0.014 0.107,-0.016c0.017,-0.002 0.035,-0.002 0.053,-0.002l10.523,0c0.017,0 0.035,0.001 0.053,0.002Z" style="fill:#2bbe9d;fill-rule:nonzero;"/><path d="M302.023,138.918c0.04,0.004 0.051,0.005 0.091,0.013c0.09,0.018 0.177,0.054 0.253,0.105c0.064,0.043 0.121,0.096 0.169,0.156c0.114,0.146 0.167,0.334 0.148,0.518c-0.007,0.062 -0.021,0.122 -0.043,0.179c-0.027,0.072 -0.066,0.139 -0.114,0.199c-0.026,0.032 -0.034,0.038 -0.063,0.067l-7.44,7.063c-0.031,0.027 -0.038,0.035 -0.071,0.059c-0.062,0.045 -0.131,0.081 -0.204,0.104c-0.088,0.028 -0.181,0.039 -0.273,0.033c-0.185,-0.014 -0.36,-0.101 -0.483,-0.239c-0.041,-0.046 -0.076,-0.097 -0.104,-0.152c-0.035,-0.068 -0.058,-0.142 -0.07,-0.218c-0.011,-0.076 -0.011,-0.154 0.002,-0.229c0.019,-0.106 0.061,-0.208 0.123,-0.295c0.018,-0.026 0.038,-0.049 0.058,-0.072c0.011,-0.011 0.022,-0.022 0.033,-0.033l7.44,-7.063c0.012,-0.01 0.023,-0.02 0.035,-0.03c0.023,-0.02 0.048,-0.038 0.074,-0.054c0.078,-0.05 0.165,-0.084 0.255,-0.101c0.031,-0.006 0.061,-0.009 0.092,-0.011c0.015,-0.001 0.03,0 0.046,-0.001c0.015,0.001 0.03,0.001 0.046,0.002Z" style="fill:#2bbe9d;fill-rule:nonzero;"/><path d="M294.568,138.917c0.041,0.004 0.051,0.004 0.091,0.011c0.091,0.017 0.178,0.051 0.256,0.101c0.026,0.016 0.051,0.034 0.074,0.054c0.012,0.01 0.023,0.02 0.035,0.03l7.44,7.063c0.029,0.029 0.037,0.036 0.063,0.068c0.048,0.059 0.087,0.127 0.114,0.199c0.033,0.086 0.049,0.178 0.047,0.27c-0.002,0.077 -0.016,0.153 -0.042,0.226c-0.026,0.072 -0.063,0.14 -0.11,0.2c-0.038,0.049 -0.082,0.092 -0.131,0.13c-0.147,0.112 -0.336,0.163 -0.52,0.141c-0.107,-0.012 -0.21,-0.049 -0.301,-0.107c-0.026,-0.016 -0.051,-0.035 -0.074,-0.054c-0.012,-0.01 -0.023,-0.021 -0.035,-0.031l-7.44,-7.063c-0.029,-0.029 -0.037,-0.035 -0.063,-0.067c-0.058,-0.072 -0.102,-0.154 -0.129,-0.242c-0.059,-0.192 -0.034,-0.405 0.068,-0.578c0.032,-0.053 0.07,-0.101 0.113,-0.145c0.055,-0.054 0.118,-0.099 0.187,-0.133c0.069,-0.034 0.143,-0.056 0.219,-0.067c0.041,-0.006 0.051,-0.005 0.092,-0.007c0.015,0.001 0.031,0.001 0.046,0.001Z" style="fill:#2bbe9d;fill-rule:nonzero;"/></g><text x="-3.925px" y="92.098px" style="font-family:'HiraMaruPro-W4', 'Hiragino Maru Gothic Pro', sans-serif;font-size:116.269px;">AL</text><g><path d="M19.91,66.403l40.23,0l9.185,24.067c0.814,2.21 2.674,3.256 4.767,3.256c0.697,0 1.395,-0.116 2.093,-0.349c2.325,-0.581 4.185,-2.325 4.185,-4.651c0,-0.697 -0.116,-1.279 -0.465,-1.976l-31.625,-79.645c-1.511,-3.953 -4.534,-5.464 -8.255,-5.464c-3.604,0 -6.511,1.511 -8.023,5.464l-31.625,79.412c-0.233,0.698 -0.349,1.279 -0.349,1.977c0,2.209 1.744,4.186 4.07,4.767c0.814,0.232 1.511,0.349 2.325,0.349c1.977,0 3.721,-0.93 4.535,-3.256l8.952,-23.951Zm3.488,-9.767l13.139,-33.718c1.395,-3.488 2.558,-7.209 3.604,-11.162c1.047,3.953 2.326,7.674 3.605,11.046l12.905,33.834l-33.253,0Z" style="fill:#fff;fill-rule:nonzero;"/><path d="M94.788,80.471c0,8.837 3.604,12.441 11.859,12.441l44.648,0c3.023,0 4.767,-2.558 4.767,-5.348c0,-2.907 -1.744,-5.116 -4.767,-5.116l-41.16,0c-2.674,0 -4.185,-1.395 -4.185,-4.07l0,-71.854c0,-3.372 -2.326,-4.883 -5.581,-4.883c-3.14,0 -5.581,1.511 -5.581,4.999l0,73.831Z" style="fill:#fff;fill-rule:nonzero;"/></g><g><path d="M236.007,92.912c17.905,0 28.253,-9.301 28.253,-25.114c0,-12.557 -6.046,-20.231 -17.905,-22.673c9.999,-3.255 14.766,-9.766 14.766,-20.812c0,-13.952 -9.651,-21.975 -26.393,-21.975l-27.44,0c-8.255,0 -11.743,3.605 -11.743,12.557l0,65.576c0,8.837 3.488,12.441 11.743,12.441l28.719,0Zm-29.649,-52.321l0,-24.882c0,-2.325 1.163,-3.72 3.372,-3.72l24.184,0c10.58,0 16.045,4.65 16.045,13.719c0,9.302 -5.814,14.883 -15.813,14.883l-27.788,0Zm0,9.534l28.137,0c11.86,0 18.254,5.697 18.254,16.626c0,10.697 -6.278,16.511 -18.021,16.511l-24.649,0c-2.558,0 -3.721,-1.279 -3.721,-3.837l0,-29.3Z" style="fill:#fff;fill-rule:nonzero;"/><path d="M279.956,88.843c0,3.139 2.326,4.767 5.465,4.767c3.256,0 5.697,-1.628 5.697,-4.767l0,-82.435c0,-3.256 -2.441,-4.767 -5.697,-4.767c-3.139,0 -5.465,1.511 -5.465,4.767l0,82.435Z" style="fill:#fff;fill-rule:nonzero;"/></g><text x="350.149px" y="92.098px" style="font-family:'HiraMaruPro-W4', 'Hiragino Maru Gothic Pro', sans-serif;font-size:116.269px;">ON</text><g><path d="M397.006,0.594c-24.998,0 -40.695,18.487 -40.695,46.973c0,28.835 15.813,47.205 40.695,47.205c24.881,0 40.461,-18.486 40.461,-47.089c0,-28.718 -15.58,-47.089 -40.461,-47.089Zm0,9.999c17.673,0 28.951,14.418 28.951,36.393c0,23.37 -10.813,37.671 -28.951,37.671c-17.79,0 -29.184,-14.534 -29.184,-36.974c0,-22.44 11.162,-37.09 29.184,-37.09Z" style="fill:#fff;fill-rule:nonzero;"/><path d="M512.926,41.637c0,16.743 1.163,33.602 1.861,40.811c-3.023,-6.511 -9.535,-18.952 -14.883,-27.672l-29.3,-47.555c-2.209,-3.488 -4.186,-5.58 -9.418,-5.58c-4.534,0 -7.325,2.674 -7.325,6.976l0,80.226c0,3.139 2.326,4.767 5.581,4.767c3.14,0 5.465,-1.628 5.465,-4.767l0,-35.695c0,-17.092 -0.93,-33.253 -1.628,-40.694c2.674,5.813 8.488,17.208 13.139,24.649l30.811,49.879c2.907,4.651 4.767,6.628 9.767,6.628c4.65,0 6.976,-2.791 6.976,-7.325l0,-79.877c0,-3.256 -2.209,-4.767 -5.465,-4.767c-3.255,0 -5.581,1.511 -5.581,4.767l0,35.229Z" style="fill:#fff;fill-rule:nonzero;"/></g><text x="148.205px" y="55.585px" style="font-family:'HiraMaruPro-W4', 'Hiragino Maru Gothic Pro', sans-serif;font-size:29.481px;fill:#00af8a;">&gt;</text><text x="317.084px" y="55.643px" style="font-family:'HiraMaruPro-W4', 'Hiragino Maru Gothic Pro', sans-serif;font-size:29.481px;fill:#00af8a;">&gt;</text></g></svg>