<svg viewBox="0 0 351 138" xmlns="http://www.w3.org/2000/svg" fill-rule="evenodd" clip-rule="evenodd" stroke-linecap="round" stroke-linejoin="round" stroke-miterlimit="1.5">
    <path fill="none" d="M0 0h350.766v137.318H0z"/>
    <path d="M151.51 100.322c0-1.21.035-1.866.104-2.592h-1.002c.069.726.104 1.382.104 2.592v7.808c0 1.312.069 2.798.172 3.282h-.103c-1.002-3.593-3.628-5.77-7.29-5.77-4.768 0-7.981 3.731-7.981 9.294 0 5.7 3.144 9.397 7.981 9.397 3.697 0 6.322-2.108 7.324-5.735h.069a20.5 20.5 0 0 0-.172 2.591v2.833l.898-.035c-.069-.725-.104-1.416-.104-2.591v-21.074zm-8.015 23.285c-4.422 0-7.186-3.385-7.186-8.671 0-5.252 2.764-8.568 7.186-8.568 4.388 0 7.221 3.351 7.221 8.568 0 5.355-2.764 8.671-7.221 8.671zM170.823 114.728v-.621c0-5.459-2.729-8.534-7.566-8.534-5.079 0-8.188 3.524-8.188 9.328 0 5.597 3.455 9.432 8.464 9.432 2.108 0 4.077-.656 5.528-1.831.449-.346 1.002-.864 1.313-1.244l-.553-.518c-.38.518-.829.967-1.382 1.382-1.313.967-3.075 1.485-4.906 1.485-4.629 0-7.67-3.454-7.67-8.706v-.173h14.96zm-14.925-.691c.276-4.836 3.006-7.738 7.324-7.738 4.388 0 6.806 2.763 6.806 7.738h-14.13zM185.23 106.022c-.173.622-.38 1.244-.933 2.591l-4.871 12.231a33.383 33.383 0 0 0-.795 2.142 46.026 46.026 0 0 0-.795-2.142l-4.871-12.231c-.553-1.347-.76-1.969-.933-2.591h-1.036c.345.657.622 1.313 1.14 2.591l5.078 12.783c.45 1.14.691 1.866.864 2.591h1.106c.172-.725.414-1.451.863-2.591l5.079-12.783c.587-1.451.829-2.004 1.14-2.591h-1.036zM226.971 100.322c0-1.21.035-1.866.104-2.592h-1.002c.069.726.104 1.382.104 2.592v7.808c0 1.312.069 2.798.172 3.282h-.103c-1.002-3.593-3.628-5.77-7.29-5.77-4.768 0-7.981 3.731-7.981 9.294 0 5.7 3.144 9.397 7.981 9.397 3.697 0 6.322-2.108 7.324-5.735h.069a20.5 20.5 0 0 0-.172 2.591v2.833l.898-.035c-.069-.725-.104-1.416-.104-2.591v-21.074zm-8.015 23.285c-4.422 0-7.186-3.385-7.186-8.671 0-5.252 2.764-8.568 7.186-8.568 4.388 0 7.221 3.351 7.221 8.568 0 5.355-2.764 8.671-7.221 8.671zM246.284 114.728v-.621c0-5.459-2.729-8.534-7.566-8.534-5.079 0-8.188 3.524-8.188 9.328 0 5.597 3.455 9.432 8.464 9.432 2.108 0 4.077-.656 5.528-1.831.449-.346 1.002-.864 1.313-1.244l-.553-.518c-.38.518-.829.967-1.382 1.382-1.313.967-3.075 1.485-4.906 1.485-4.629 0-7.67-3.454-7.67-8.706v-.173h14.96zm-14.925-.691c.276-4.836 3.006-7.738 7.324-7.738 4.388 0 6.806 2.763 6.806 7.738h-14.13zM248.011 120.844a8.045 8.045 0 0 0 1.97 2.072c1.278.968 2.867 1.417 4.906 1.417 4.042 0 6.46-1.866 6.46-4.975 0-2.729-1.658-4.042-6.46-5.01-3.662-.725-5.079-1.762-5.079-3.8 0-2.591 1.9-4.146 5.079-4.146 1.174 0 2.314.242 3.316.726.795.414 1.451.933 1.866 1.451l.553-.588c-.553-.621-1.417-1.243-2.28-1.623-1.037-.449-2.177-.691-3.455-.691-3.524 0-5.874 1.934-5.874 4.871 0 2.453 1.624 3.766 5.735 4.595 4.457.898 5.805 1.9 5.805 4.284 0 2.729-2.004 4.18-5.632 4.18-1.865 0-3.42-.414-4.526-1.312a8.292 8.292 0 0 1-1.796-2.004l-.588.553zM265.32 99.078c-.483 0-.863.345-.863.829 0 .518.38.864.863.864.484 0 .83-.346.83-.864 0-.484-.346-.829-.83-.829zm-.518 6.944c.069.726.104 1.382.104 2.591v12.783c0 1.175-.035 1.866-.104 2.591h1.002c-.069-.725-.104-1.416-.104-2.591v-12.783c0-1.209.035-1.865.104-2.591h-1.002zM284.771 106.022v2.833c0 .795.035 1.762.104 2.557-1.037-3.593-3.662-5.77-7.324-5.77-4.768 0-7.981 3.731-7.981 9.294 0 5.7 3.144 9.397 7.981 9.397 3.765 0 6.391-2.211 7.358-5.942-.069.691-.138 1.9-.138 2.763v3.732c0 4.18-2.625 6.668-7.048 6.668-2.073 0-3.593-.449-4.733-1.348-.76-.622-1.347-1.451-1.865-2.487l-.657.449c.622 1.14 1.313 2.004 2.142 2.66 1.313 1.002 2.937 1.451 5.113 1.451 4.803 0 7.843-2.833 7.843-7.393v-16.273c0-1.209.034-1.865.104-2.591h-.899zm-7.22 17.585c-4.423 0-7.187-3.385-7.187-8.671 0-5.252 2.764-8.568 7.187-8.568 4.387 0 7.22 3.351 7.22 8.568 0 5.355-2.764 8.671-7.22 8.671zM304.637 123.987a26.324 26.324 0 0 1-.104-2.591v-9.086c0-4.215-2.349-6.633-6.391-6.633-3.282 0-5.805 1.727-6.772 4.387h-.104c.104-.794.139-1.796.139-2.591v-1.451h-.899c.069.726.104 1.382.104 2.591v12.783c0 1.175-.035 1.866-.104 2.591h1.002c-.069-.725-.103-1.416-.103-2.591v-8.81c0-3.627 2.694-6.149 6.668-6.184 3.696 0 5.666 2.142 5.666 6.115v8.879c0 1.14-.035 1.831-.104 2.591h1.002zM54.837 123.987l-6.051-18.282h1.631l5.236 16.008 4.249-16.008h1.931l4.249 15.664 5.193-15.664h1.673l-6.051 18.282h-1.631l-4.42-15.836-4.378 15.836h-1.631zM81.607 124.631c-2.46 0-4.435-.887-5.923-2.661-1.487-1.802-2.231-4.177-2.231-7.124s.744-5.322 2.231-7.124c1.488-1.774 3.463-2.661 5.923-2.661 2.461 0 4.435.815 5.923 2.446 1.488 1.631 2.231 3.805 2.231 6.524v.815H75.169c0 2.489.587 4.478 1.76 5.966 1.173 1.487 2.733 2.231 4.678 2.231 1.459 0 2.775-.386 3.949-1.158 1.201-.802 2.031-1.846 2.489-3.133h1.716c-.286 1.688-1.201 3.09-2.746 4.205-1.545 1.116-3.348 1.674-5.408 1.674zm-6.438-11.416h12.876v-.644c-.143-1.688-.83-3.118-2.06-4.291-1.259-1.145-2.718-1.717-4.378-1.717-1.659 0-3.104.586-4.335 1.76-1.258 1.201-1.959 2.675-2.103 4.42v.472zM100.18 124.631c-1.345 0-2.604-.386-3.777-1.159-1.144-.743-2.017-1.759-2.618-3.047v3.562h-1.717v-25.45h1.717v11.288c.486-1.316 1.316-2.389 2.489-3.219a6.774 6.774 0 0 1 3.906-1.202c2.403 0 4.32.873 5.751 2.618 1.459 1.745 2.189 4.077 2.189 6.996 0 2.918-.73 5.25-2.189 6.995-1.431 1.746-3.348 2.618-5.751 2.618zm0-1.459c1.917 0 3.462-.744 4.635-2.232 1.144-1.487 1.717-3.462 1.717-5.922 0-2.461-.573-4.435-1.717-5.923-1.173-1.488-2.718-2.232-4.635-2.232-1.774 0-3.276.801-4.507 2.404-1.259 1.573-1.888 3.49-1.888 5.751 0 2.26.629 4.177 1.888 5.751 1.231 1.602 2.733 2.403 4.507 2.403z" fill="#dcdcdc" fill-rule="nonzero"/>
    <path d="M198.357 103.53v-2.175c.001-.031.001-.038.005-.069a.468.468 0 0 1 .448-.401h.035l.034.003c.03.004.038.004.067.012a.475.475 0 0 1 .35.421l.002.034v2.175l1.641-1.558.023-.02a.48.48 0 0 1 .276-.109l.03-.001.03.002c.026.003.033.003.059.008a.468.468 0 0 1 .374.51.495.495 0 0 1-.103.247c-.017.021-.022.026-.041.045l-1.581 1.5h2.266l.035.002a.417.417 0 0 1 .103.019.483.483 0 0 1 .285.246.462.462 0 0 1 0 .408.476.476 0 0 1-.353.261c-.031.004-.039.004-.07.005h-2.266l1.581 1.501c.019.019.024.023.041.044a.485.485 0 0 1 .078.455.491.491 0 0 1-.158.216.476.476 0 0 1-.586-.013l-.023-.02-1.641-1.559v2.175c-.002.031-.001.039-.005.069a.472.472 0 0 1-.792.27.477.477 0 0 1-.143-.304l-.001-.035v-2.175l-1.642 1.559c-.02.018-.024.022-.046.038a.467.467 0 0 1-.742-.309.472.472 0 0 1 .12-.39l.021-.021 1.581-1.501h-2.266c-.031-.001-.039-.001-.07-.005a.465.465 0 0 1-.399-.43.47.47 0 0 1 .434-.504l.035-.002h2.266l-1.581-1.5a.465.465 0 0 1-.081-.581.465.465 0 0 1 .34-.226c.027-.004.033-.003.06-.005a.3.3 0 0 0 .03.001c.027.002.034.002.06.007a.483.483 0 0 1 .216.102l.022.02 1.642 1.558z" fill="#00af8a"/>
    <path d="M16.599 54.368h26.338l6.014 15.757c.533 1.446 1.75 2.131 3.121 2.131a4.32 4.32 0 0 0 1.37-.228c1.522-.381 2.74-1.522 2.74-3.045 0-.457-.076-.837-.304-1.294L35.173 15.546c-.99-2.588-2.969-3.578-5.405-3.578-2.36 0-4.263.99-5.252 3.578L3.811 67.537c-.153.457-.229.837-.229 1.294 0 1.446 1.142 2.74 2.665 3.121.532.152.989.228 1.522.228 1.294 0 2.436-.609 2.969-2.131l5.861-15.681zm2.284-6.394l8.601-22.076c.914-2.283 1.675-4.719 2.36-7.307.685 2.588 1.523 5.024 2.36 7.231l8.449 22.152h-21.77zM65.621 63.579c0 5.785 2.36 8.145 7.765 8.145h29.23c1.979 0 3.121-1.675 3.121-3.502 0-1.903-1.142-3.349-3.121-3.349H75.669c-1.75 0-2.74-.914-2.74-2.665V15.165c0-2.207-1.522-3.197-3.654-3.197-2.055 0-3.654.99-3.654 3.273v48.338zM158.077 71.724c11.723 0 18.498-6.09 18.498-16.443 0-8.221-3.959-13.245-11.723-14.843 6.546-2.132 9.667-6.395 9.667-13.626 0-9.135-6.318-14.387-17.279-14.387h-17.965c-5.405 0-7.688 2.36-7.688 8.221v42.933c0 5.785 2.283 8.145 7.688 8.145h18.802zm-19.411-34.255v-16.29c0-1.523.761-2.436 2.208-2.436h15.833c6.927 0 10.505 3.045 10.505 8.982 0 6.09-3.806 9.744-10.353 9.744h-18.193zm0 6.242h18.421c7.765 0 11.952 3.73 11.952 10.885 0 7.003-4.111 10.81-11.799 10.81h-16.138c-1.675 0-2.436-.838-2.436-2.512V43.711zM186.851 69.059c0 2.056 1.522 3.121 3.578 3.121 2.131 0 3.73-1.065 3.73-3.121v-53.97c0-2.131-1.599-3.121-3.73-3.121-2.056 0-3.578.99-3.578 3.121v53.97zM263.483 11.283c-16.366 0-26.643 12.103-26.643 30.753 0 18.878 10.353 30.906 26.643 30.906s26.49-12.104 26.49-30.83c0-18.802-10.2-30.829-26.49-30.829zm0 6.547c11.57 0 18.954 9.439 18.954 23.826 0 15.3-7.079 24.663-18.954 24.663-11.647 0-19.107-9.515-19.107-24.207 0-14.691 7.308-24.282 19.107-24.282zM339.376 38.154c0 10.962.761 21.999 1.218 26.719-1.979-4.263-6.242-12.408-9.744-18.117l-19.182-31.134c-1.447-2.284-2.741-3.654-6.166-3.654-2.969 0-4.796 1.751-4.796 4.568v52.523c0 2.056 1.523 3.121 3.654 3.121 2.055 0 3.578-1.065 3.578-3.121V45.69c0-11.19-.609-21.771-1.066-26.642 1.751 3.806 5.557 11.266 8.602 16.137l20.172 32.656c1.903 3.045 3.121 4.339 6.394 4.339 3.045 0 4.568-1.827 4.568-4.795V15.089c0-2.131-1.447-3.121-3.578-3.121-2.132 0-3.654.99-3.654 3.121v23.065z" fill="#dcdcdc" fill-rule="nonzero"/>
    <path d="M108.353 42.055l-6.736 3.976a.67.67 0 0 0-.348.598c0 .135.039.29.097.425.135.27.366.482.675.482a.625.625 0 0 0 .348-.115l7.102-4.285c.464-.27.714-.541.714-1.062 0-.54-.25-.81-.733-1.119l-7.083-4.227a.685.685 0 0 0-.367-.116c-.29 0-.541.232-.656.483a1.125 1.125 0 0 0-.097.424c0 .232.097.444.348.599l6.736 3.937zM218.918 42.093l-6.736 3.976a.67.67 0 0 0-.348.598c0 .135.039.29.097.425.135.27.366.483.675.483a.626.626 0 0 0 .348-.116l7.102-4.285c.464-.27.715-.541.715-1.062 0-.54-.251-.81-.734-1.119l-7.083-4.227a.685.685 0 0 0-.367-.116c-.29 0-.541.232-.656.483a1.125 1.125 0 0 0-.097.424c0 .232.097.444.348.599l6.736 3.937z" fill="#00af8a" fill-rule="nonzero"/>
    <path d="M16.086 62.444l-2.493-.985-2.617 6.618 2.492.986 2.618-6.619zM332.411 61.813l-2.322 1.34 3.559 6.164 2.321-1.341-3.558-6.163zM280.512 69.317l-1.34-2.322-6.164 3.559 1.34 2.321 6.164-3.558zM193.313 14.991h2.68v7.117h-2.68zM173.234 68.698l-1.34-2.321-6.164 3.558 1.34 2.321 6.164-3.558z" fill="#dcdcdc"/>
    <path d="M13.468 65.261c14.227 0 20.6 10.788 38.422 10.788 17.822 0 42.573-24.597 42.573-13.469" fill="none" stroke="#dcdcdc" stroke-width=".35"/>
    <path d="M90.905 62.58v2.681h7.117V62.58h-7.117z" fill="#dcdcdc"/>
    <path d="M169.482 69.935c7.802 7.802 26.886-3.305 25.171-6.364-1.714-3.059-14.852-11.31-3.162-12.189 3.189-2.666 6.393-2.909-1.49-9.308-7.884-6.399-2.189-7.446 4.158-10.603 6.346-3.158 13.087-13.46.494-12.922M276.76 70.554c2.098 4.129 16.081 8.527 39.59 0 23.509-8.528 19.619-7.401 19.619-7.401" fill="none" stroke="#dcdcdc" stroke-width=".35"/>
</svg>
