<?xml version="1.0" encoding="utf-8"?>
<!-- Generator: Adobe Illustrator 20.1.0, SVG Export Plug-In . SVG Version: 6.00 Build 0)  -->
<svg version="1.1" id="Layer_1" xmlns="http://www.w3.org/2000/svg" xmlns:xlink="http://www.w3.org/1999/xlink" x="0px" y="0px"
	 viewBox="0 0 960 960" style="enable-background:new 0 0 960 960;" xml:space="preserve">
<style type="text/css">
	.st0{enable-background:new    ;}
	.st1{fill:none;stroke:#000000;stroke-linecap:round;stroke-linejoin:round;stroke-miterlimit:1.4142;}
</style>
<g transform="matrix(7.59607,0,0,7.59607,-1572.52,-2576.09)">
	<g class="st0">
		<path d="M209.1,401.3c-0.1,1.4,1.1,2.5,2.6,2.5c1.6,0,2.9-0.8,2.9-2.6c0-1.4-1.6-2.1-2.8-2.5c-1.6-0.5-3.1-1.4-3.1-3.3
			c0-2,1.7-2.9,3.3-2.9c1.7,0,3,1.1,3,2.9c0,0.4-0.6,0.4-0.6,0c0-1.7-1.2-2.3-2.4-2.3c-1.4,0-2.6,0.8-2.7,2.3c0,1.6,1.3,2.3,2.7,2.7
			c1.5,0.4,3.3,1.3,3.3,3.1c0,2.1-1.6,3.1-3.5,3.1c-1.7,0-3.2-1.3-3.2-3.1C208.5,400.9,209.1,400.9,209.1,401.3z"/>
	</g>
	<g class="st0">
		<path d="M225.3,404.4c-0.5,0-0.9-0.3-0.9-0.9v-10.1c0-0.3-0.4-0.5-0.5-0.2l-5.7,10.3c-0.1,0.2,0.1,0.3,0.2,0.1l1.4-2.5
			c0.1-0.1,0.2-0.2,0.3-0.2h2.5c0.4,0,0.4,0.6,0,0.6h-2.3L219,404c-0.5,0.9-1.8,0.2-1.3-0.7l5.7-10.3c0.4-0.8,1.7-0.5,1.7,0.5v10.1
			c0,0.2,0.1,0.3,0.3,0.3C225.7,403.8,225.7,404.4,225.3,404.4z"/>
	</g>
	<g class="st0">
		<path d="M240.8,393.4c0-0.3-0.4-0.4-0.5-0.1l-4.5,10.6c-0.4,0.8-1.7,0.6-1.7-0.4v-10.1c0-0.3-0.4-0.4-0.5-0.1l-4.6,10.6
			c-0.2,0.5-0.7,0.6-1,0.5c-0.1,0-0.2-0.1-0.2-0.1c-0.2-0.2-0.1-0.5,0.1-0.5c0.1,0,0.3,0,0.3,0.1c0.1,0,0.2-0.1,0.2-0.2l4.6-10.6
			c0.4-0.9,1.7-0.6,1.7,0.3v10.1c0,0.3,0.4,0.4,0.6,0.1l4.5-10.6c0.4-0.9,1.7-0.6,1.7,0.3v10.7c0,0.4-0.6,0.4-0.6,0V393.4z"/>
	</g>
	<g class="st0">
		<path d="M256,398.3c0,0.2-0.1,0.3-0.3,0.3h-2.2c-0.2,0-0.2,0.1-0.2,0.3v4.8c0,1-1.5,1-1.5,0v-10.2c0-0.5,0.3-0.9,0.9-0.9h4.5
			c0.3,0,0.3-0.2,0.3-0.2c0-0.2,0.2-0.3,0.3-0.3c0.2,0,0.3,0.2,0.3,0.3c0,0-0.1,0.7-0.9,0.7h-4.5c-0.2,0-0.3,0.1-0.3,0.3v10.2
			c0,0.2,0.3,0.2,0.3,0v-4.8c0-0.1,0-0.8,0.8-0.8h2.2C255.9,398,256,398.2,256,398.3z"/>
	</g>
	<g class="st0">
		<path d="M263.7,404.4c-2.8,0-3.9-2.2-3.9-4.8l0-2.3c0-3,1.4-4.8,4.6-4.8c3.2,0,4.6,1.8,4.6,4.8v2.3c0,2.5-0.8,4.6-3.6,4.8
			c-0.4,0-0.4-0.6,0-0.6c2.4-0.1,3-1.9,3-4.2v-2.3c0-2.7-1.1-4.2-4-4.2c-2.9,0-4,1.5-4,4.2v2.3c0,2.3,0.9,4.2,3.3,4.2
			c0.5,0,1,0.3,1,0.9c0,0.4-0.6,0.4-0.6,0C264.1,404.5,263.9,404.4,263.7,404.4z"/>
	</g>
	<g class="st0">
		<path d="M272.3,404.1v-10.8c0-0.4,0.3-0.8,0.8-0.8h4.3c3.6,0,3.7,6.3,0,6.3c-0.7,0-2.4,0-2.4,0c-0.2,0-0.3,0.1-0.3,0.3
			c0,0.4-0.6,0.4-0.6,0c0-0.5,0.4-0.9,0.9-0.9c0,0,1.8,0,2.4,0c2.9,0,2.8-5.1,0-5.1h-4.3c-0.1,0-0.2,0.1-0.2,0.2v10.8
			c0,0.2-0.1,0.3-0.3,0.3C272.4,404.4,272.3,404.3,272.3,404.1z M276.2,399.8c-0.2-0.3,0.3-0.7,0.5-0.3l2.9,4.5
			c0.2,0.3-0.3,0.6-0.5,0.3L276.2,399.8z"/>
	</g>
	<g class="st0">
		<path d="M282.7,392.8c0-0.2,0.1-0.3,0.3-0.3c0.5,0,0.9,0.4,0.9,0.9v10.1c0,0.2,0.1,0.3,0.3,0.3c0.2,0,0.8,0,2.9,0
			c1.6,0,2.5-0.4,3.1-1.2c0.6-0.7,0.8-1.8,0.8-3v-2.4c0-1.3-0.3-2.3-0.9-3c-0.6-0.7-1.6-1.1-3.1-1.1h-2.1c-0.4,0-0.4-0.6,0-0.6h2.1
			c1.7,0,2.8,0.5,3.6,1.3c0.7,0.8,1,2,1,3.4v2.4c0,1.3-0.2,2.5-0.9,3.4s-1.8,1.4-3.6,1.4c-2.2,0-2.7,0-2.9,0c-0.5,0-0.9-0.4-0.9-0.9
			v-10.1c0-0.2-0.1-0.3-0.3-0.3C282.8,393.1,282.7,393,282.7,392.8z"/>
	</g>
	<g class="st0">
		<path d="M301,392.8c0,0.2-0.1,0.3-0.3,0.3l-5.2,0c-0.2,0-0.3,0.1-0.3,0.3v10.2c0,0.2,0.3,0.2,0.3,0v-4.8c0-0.5,0.2-0.9,0.8-0.9
			h2.2c0.2,0,0.3,0.1,0.3,0.3c0,0.2-0.1,0.3-0.3,0.3h-2.2c-0.2,0-0.2,0.1-0.2,0.2v4.8c0,0.4-0.3,0.8-0.7,0.8c-0.4,0-0.7-0.4-0.7-0.8
			v-10.2c0-0.5,0.4-0.9,0.9-0.9h5.2C300.9,392.5,301,392.7,301,392.8z M300.1,404.4c0.5,0,0.8-0.2,0.9-0.7c0-0.2-0.1-0.3-0.3-0.3
			c-0.2,0-0.3,0.1-0.3,0.3c0,0,0,0.2-0.3,0.2h-3.2c-0.2,0-0.3,0.1-0.3,0.3s0.1,0.3,0.3,0.3H300.1z"/>
	</g>
	<g class="st0">
		<path d="M304.1,404.1v-10.8c0-0.4,0.3-0.8,0.8-0.8h4.3c3.6,0,3.7,6.3,0,6.3c-0.7,0-2.4,0-2.4,0c-0.2,0-0.3,0.1-0.3,0.3
			c0,0.4-0.6,0.4-0.6,0c0-0.5,0.4-0.9,0.9-0.9c0,0,1.8,0,2.4,0c2.9,0,2.8-5.1,0-5.1h-4.3c-0.1,0-0.2,0.1-0.2,0.2v10.8
			c0,0.2-0.1,0.3-0.3,0.3C304.2,404.4,304.1,404.3,304.1,404.1z M308,399.8c-0.2-0.3,0.3-0.7,0.5-0.3l2.9,4.5
			c0.2,0.3-0.3,0.6-0.5,0.3L308,399.8z"/>
	</g>
	<g class="st0">
		<path d="M321.3,392.8c0,0.2-0.1,0.3-0.3,0.3l-5.2,0c-0.2,0-0.3,0.1-0.3,0.3v10.2c0,0.2,0.3,0.2,0.3,0v-4.8c0-0.5,0.2-0.9,0.8-0.9
			h2.2c0.2,0,0.3,0.1,0.3,0.3c0,0.2-0.1,0.3-0.3,0.3h-2.2c-0.2,0-0.2,0.1-0.2,0.2v4.8c0,0.4-0.3,0.8-0.7,0.8c-0.4,0-0.7-0.4-0.7-0.8
			v-10.2c0-0.5,0.4-0.9,0.9-0.9h5.2C321.2,392.5,321.3,392.7,321.3,392.8z M320.4,404.4c0.5,0,0.8-0.2,0.9-0.7
			c0-0.2-0.1-0.3-0.3-0.3c-0.2,0-0.3,0.1-0.3,0.3c0,0,0,0.2-0.3,0.2h-3.2c-0.2,0-0.3,0.1-0.3,0.3s0.1,0.3,0.3,0.3H320.4z"/>
	</g>
	<g class="st0">
		<path d="M324.4,404.1v-10.8c0-0.4,0.3-0.8,0.8-0.8h4.3c3.6,0,3.7,6.3,0,6.3c-0.7,0-2.4,0-2.4,0c-0.2,0-0.3,0.1-0.3,0.3
			c0,0.4-0.6,0.4-0.6,0c0-0.5,0.4-0.9,0.9-0.9c0,0,1.8,0,2.4,0c2.9,0,2.8-5.1,0-5.1h-4.3c-0.1,0-0.2,0.1-0.2,0.2v10.8
			c0,0.2-0.1,0.3-0.3,0.3C324.5,404.4,324.4,404.3,324.4,404.1z M328.3,399.8c-0.2-0.3,0.3-0.7,0.5-0.3l2.9,4.5
			c0.2,0.3-0.3,0.6-0.5,0.3L328.3,399.8z"/>
	</g>
</g>
<g transform="matrix(0.609654,-0.244427,0.32949,0.82182,-63.976,-208.264)">
	<rect x="-245.3" y="780.8" transform="matrix(-1 2.523552e-06 -2.523552e-06 -1 -480.7101 1565.8931)" width="9.9" height="4.2"/>
</g>
<g transform="matrix(1.02415e-16,-0.656827,0.885411,4.77936e-16,-212.594,256.633)">
	<rect x="-346.9" y="391" transform="matrix(-2.535182e-06 -1 1 -2.535182e-06 -738.6927 50.693)" width="5.7" height="7.3"/>
</g>
<g transform="matrix(0.27177,-0.597966,0.806065,0.366349,-166.661,28.8014)">
	<rect x="-345.8" y="556.1" transform="matrix(-1 2.544210e-06 -2.544210e-06 -1 -681.6863 1116.5178)" width="9.9" height="4.2"/>
</g>
<g transform="matrix(-0.656827,3.10456e-16,-1.42385e-16,-0.885411,479.564,610.692)">
	<rect x="179.8" y="177.1" width="9.9" height="4.2"/>
</g>
<g transform="matrix(-0.34304,-0.56013,0.755062,-0.462421,87.8627,484.917)">
	<rect x="-257.9" y="303.8" transform="matrix(-2.521421e-06 -1 1 -2.521421e-06 -562.5187 52.474)" width="5.7" height="7.3"/>
</g>
<g transform="matrix(0.525918,-0.393487,0.530425,0.708944,134.144,-134.15)">
	<rect x="-179.4" y="782.8" transform="matrix(-1 2.536724e-06 -2.536724e-06 -1 -348.9547 1569.9325)" width="9.9" height="4.2"/>
</g>
<g transform="matrix(-0.392872,-0.561079,0.725286,-0.507851,197.521,498.038)">
	<rect x="-250.5" y="323.3" transform="matrix(-2.520840e-06 -1 1 -2.520840e-06 -574.9666 79.3458)" width="5.5" height="7.6"/>
</g>
<g transform="matrix(0.684948,-0.00218377,0.00282288,0.885406,548.23,-300.122)">
	<rect x="194.7" y="847.8" transform="matrix(-1 2.199358e-06 -2.199358e-06 -1 399.3428 1699.8757)" width="9.9" height="4.2"/>
</g>
<g transform="matrix(0.0126148,-0.684835,0.885261,0.0163067,211.052,215.465)">
	<rect x="-306.2" y="596.3" transform="matrix(-1 2.828065e-06 -2.828065e-06 -1 -602.4167 1196.8494)" width="9.9" height="4.2"/>
</g>
<g transform="matrix(6.82766e-17,-0.684951,0.885411,-3.41383e-17,215.725,262.664)">
	<rect x="-329.2" y="590.1" transform="matrix(-2.535182e-06 -1 1 -2.535182e-06 -920.3425 267.4273)" width="5.5" height="7.6"/>
</g>
<g transform="matrix(-0.512026,-8.23917e-17,1.08071e-17,-0.476591,808.688,400.473)">
	<rect x="-81.2" y="-110.5" width="9.9" height="4.2"/>
</g>
<g transform="matrix(-0.512026,-8.23917e-17,1.08071e-17,-0.476591,855.665,401.903)">
	<rect x="-119" y="-111.8" width="9.9" height="4.2"/>
</g>
<g transform="matrix(-0.256013,-0.443427,0.41274,-0.238296,625.939,351.615)">
	<rect x="-519.7" y="418.6" transform="matrix(-2.548730e-06 -1 1 -2.548730e-06 -941.6321 -93.8705)" width="3.9" height="10.6"/>
</g>
<g transform="matrix(2.45992,0,0,2.45992,-217.922,-677.519)">
	<path class="st1" d="M368,459.9c0,0.5-0.3,2.7,2,2.4c9.4-1.1,16.4-12.3,18.9-11.6"/>
</g>
<g transform="matrix(0.516665,-3.35668e-17,-1.88131e-16,0.639917,158.34,-157.252)">
	<rect x="-106.2" y="987.1" width="9.9" height="4.2"/>
</g>
<g transform="matrix(2.45992,0,0,2.45992,49.1097,-728.351)">
	<path class="st1" d="M36,492.4c3.8-0.2,15-4.2,15.6-5.8c0.6-1.6-0.4-2.4-1.9-1.3c-1.3,0.9,2.3,1.5,3.7-2.2c1.4-3.6-4-0.1-2.9-0.1
		c1.1,0,4.8-2.3,3.8-3c-1.1-0.7-3.8,1-1.9,0.8c1.9-0.2,5,0.5,6-1c1-1.5,1-4.8-0.2-5.6"/>
</g>
<g transform="matrix(2.45992,0,0,2.45992,-217.922,-677.519)">
	<path class="st1" d="M107.9,476.4c0.6,1.2,8.8,2.4,19.9,1.8c11-0.5,3.6-5.6,3.9-9.4"/>
</g>
<g transform="matrix(2.45992,0,0,2.45992,-217.922,-677.519)">
	<path class="st1" d="M234.3,459.6c0,2-1.7,24.4,19.9,13.2"/>
</g>
<g transform="matrix(2.45992,0,0,2.45992,-208.917,-675.971)">
	<circle cx="267.8" cy="434.3" r="1.4"/>
	<circle cx="267.8" cy="434.3" r="1.4"/>
</g>
<g transform="matrix(2.45992,0,0,2.45992,-228.596,-675.971)">
	<circle cx="264.5" cy="434.3" r="1.4"/>
	<circle cx="264.5" cy="434.3" r="1.4"/>
</g>
<g transform="matrix(2.45992,0,0,2.45992,-217.922,-677.519)">
	<path class="st1" d="M275.7,475.2c1.2,1.6,6,3.4,19,3.4c12.9,0,6.1-10.2,10.1-11.8"/>
</g>
<g transform="matrix(2.45992,0,0,2.45992,-217.922,-677.519)">
	<path class="st1" d="M291.5,450.5c16.4-4.2,36.5,8.3,34.4,7.8c-2-0.4-3.3,1.7-2,1.6c1.3-0.1,3.7-5.5,1.1-5.1
		c-2.3,0.4-2.1,2.1-0.4,1.5c2.1-0.7,1.6-3.1,1.6-3.3c-0.2-2.1-3.5,0.3-2.5,0.4c1.6,0.1,3.3-2,2.2-2.8c-0.5-0.4-0.5-0.4-1.1-0.3
		c-1.8,0.4-1.3,1.6-0.1,0.7c2.2-1.6,3.2-3,3.1-5.6c-0.1-3-2.2-2-2.2-2"/>
</g>
<g transform="matrix(2.45992,0,0,2.45992,-217.922,-677.519)">
	<rect x="325.1" y="442.4" width="1.3" height="1.7"/>
</g>
<g transform="matrix(2.45992,0,0,2.45992,-217.922,-677.519)">
	<rect x="291.5" y="449.3" width="1" height="2.3"/>
</g>
<g transform="matrix(2.45992,0,0,2.45992,-217.922,-677.519)">
	<path class="st1" d="M390,473.1c4.5-1,34.9-12.8,38.8-14.3c4.8-1.8,2.2-1.8,1-1.3c-1.2,0.5-0.1-0.9-0.1,1.3c0,2.2,0.6,2.6,1.8,2.6
		c0.4,0,1.8-0.3,1.8-1.5c0.1-3.7,0-1.5,0-1.5"/>
</g>
<g transform="matrix(2.45992,0,0,2.45992,-217.922,-677.519)">
	<path class="st1" d="M460.3,459.6c0,6.6,3.5,13.3,8.6,11.1"/>
</g>
</svg>
